<svg xmlns="http://www.w3.org/2000/svg" width="29" height="30" viewBox="0 0 29 30">
    <path fill="#3AB8D6" fill-rule="evenodd" d="M5.973 26.29c0 .871-.296 1.557-.89 2.057-.592.5-1.33.75-2.21.75-1.154 0-2.09-.358-2.808-1.076l.93-1.436c.534.49 1.11.734 1.73.734.316 0 .59-.079.825-.237.233-.157.35-.389.35-.693 0-.696-.57-1.001-1.713-.914l-.424-.914c.087-.109.263-.345.53-.71.266-.364.498-.658.693-.881.196-.223.398-.433.604-.628v-.017c-.174 0-.438.006-.791.017-.354.01-.618.016-.792.016v.865H.277v-2.48h5.435v1.435l-1.55 1.877c.554.13.995.397 1.321.8.327.402.49.881.49 1.436zm.033-10.231v2.594H.098a5.89 5.89 0 0 1-.098-.88c0-.556.128-1.062.384-1.519a3.67 3.67 0 0 1 .922-1.11c.359-.282.718-.54 1.077-.775.359-.233.666-.47.922-.71.255-.239.383-.484.383-.734 0-.272-.079-.481-.236-.628-.158-.147-.373-.22-.645-.22-.5 0-.941.315-1.322.946L.098 12.06c.261-.555.65-.987 1.167-1.297a3.282 3.282 0 0 1 1.721-.465c.795 0 1.464.225 2.008.677.544.451.816 1.063.816 1.836 0 .544-.185 1.042-.555 1.493-.37.452-.778.803-1.224 1.053-.446.25-.857.525-1.232.824-.376.3-.569.585-.58.857h2.073v-.98h1.714zM29 21.264v3.134a.502.502 0 0 1-.155.367.502.502 0 0 1-.367.155H8.633a.502.502 0 0 1-.367-.155.502.502 0 0 1-.155-.367v-3.134c0-.152.049-.277.147-.375a.508.508 0 0 1 .375-.147h19.845c.141 0 .264.052.367.155a.502.502 0 0 1 .155.367zM6.022 6.594v1.615H.555V6.593H2.3c0-.446.003-1.11.008-1.99.006-.882.008-1.54.008-1.976v-.195h-.032c-.087.185-.36.478-.816.88L.31 2.073 2.53 0h1.73v6.593h1.762zM29 12.908v3.133a.502.502 0 0 1-.155.367.502.502 0 0 1-.367.155H8.633a.502.502 0 0 1-.367-.155.502.502 0 0 1-.155-.367V12.91c0-.152.049-.278.147-.376a.508.508 0 0 1 .375-.146h19.845c.141 0 .264.051.367.155a.502.502 0 0 1 .155.367zm0-8.356v3.134a.502.502 0 0 1-.155.367.502.502 0 0 1-.367.155H8.633a.502.502 0 0 1-.367-.155.502.502 0 0 1-.155-.367V4.553c0-.141.052-.264.155-.367a.502.502 0 0 1 .367-.155h19.845c.141 0 .264.052.367.155a.502.502 0 0 1 .155.367z"/>
</svg>
