<svg xmlns="http://www.w3.org/2000/svg" width="36" height="30" viewBox="0 0 36 30">
    <path fill="#DD4B75" fill-rule="evenodd" d="M16.238 18.944v8.119c0 .733-.268 1.367-.804 1.903-.535.535-1.17.803-1.903.803H2.706c-.733 0-1.367-.268-1.903-.803C.268 28.43 0 27.796 0 27.063v-8.119c0-.733.268-1.367.803-1.903.536-.535 1.17-.803 1.903-.803h10.825c.733 0 1.368.268 1.903.803.536.536.804 1.17.804 1.903zm0-16.238v8.12c0 .732-.268 1.366-.804 1.902-.535.536-1.17.803-1.903.803H2.706c-.733 0-1.367-.267-1.903-.803C.268 12.192 0 11.558 0 10.825V2.706C0 1.973.268 1.34.803.803 1.34.268 1.973 0 2.706 0h10.825c.733 0 1.368.268 1.903.803.536.536.804 1.17.804 1.903zm18.944 16.238v8.119c0 .733-.268 1.367-.804 1.903-.535.535-1.17.803-1.902.803H21.65c-.733 0-1.367-.268-1.903-.803-.535-.536-.803-1.17-.803-1.903v-8.119c0-.733.268-1.367.803-1.903.536-.535 1.17-.803 1.903-.803h10.826c.732 0 1.367.268 1.902.803.536.536.804 1.17.804 1.903zm0-16.238v8.12c0 .732-.268 1.366-.804 1.902-.535.536-1.17.803-1.902.803H21.65c-.733 0-1.367-.267-1.903-.803-.535-.536-.803-1.17-.803-1.903V2.706c0-.733.268-1.367.803-1.903C20.283.268 20.917 0 21.65 0h10.826c.732 0 1.367.268 1.902.803.536.536.804 1.17.804 1.903z"/>
</svg>
