<svg xmlns="http://www.w3.org/2000/svg" width="132" height="18" viewBox="0 0 132 18">
    <path fill="#FFF" fill-rule="evenodd" d="M0 1.458h12.268V3.43H7.199v13.726H5.046V3.43H0V1.458zm25.029 3.835v11.864H22.92v-2.512c-.778 1.69-2.243 2.55-4.396 2.58-1.376 0-2.452-.408-3.23-1.223-.777-.815-1.166-1.94-1.166-3.375V5.293h2.108v6.773c0 1.002.273 1.783.819 2.344.546.56 1.297.84 2.254.84 1.106-.014 1.985-.407 2.635-1.177.65-.77.976-1.753.976-2.95v-5.83h2.108zm10.429 11.079c-.913.583-1.84.875-2.781.875-.942 0-1.705-.28-2.288-.841-.583-.561-.875-1.41-.875-2.546V7.29h-1.682V5.697h1.682V2.512h2.108v3.185h3.634v1.592h-3.634v6.19c0 .658.12 1.129.36 1.413.239.284.597.426 1.076.426.568 0 1.181-.187 1.839-.56l.56 1.614zM46.077 5.988a5.485 5.485 0 0 1 2.153 2.12c.516.904.774 1.94.774 3.106s-.258 2.205-.774 3.117a5.464 5.464 0 0 1-2.153 2.13c-.92.509-1.97.763-3.151.763-1.196 0-2.254-.254-3.174-.762a5.485 5.485 0 0 1-2.153-2.12c-.515-.904-.773-1.947-.773-3.128 0-1.167.258-2.202.773-3.107a5.485 5.485 0 0 1 2.153-2.119c.92-.508 1.978-.762 3.174-.762 1.181 0 2.231.254 3.15.762zM40.85 7.58a3.72 3.72 0 0 0-1.413 1.492c-.336.635-.504 1.357-.504 2.164 0 .822.168 1.555.504 2.198.337.643.808 1.14 1.413 1.491.606.352 1.297.527 2.075.527.762 0 1.446-.175 2.052-.527a3.628 3.628 0 0 0 1.413-1.491c.336-.643.504-1.376.504-2.198 0-.807-.168-1.529-.504-2.164a3.72 3.72 0 0 0-1.413-1.492c-.606-.358-1.29-.538-2.052-.538-.778 0-1.47.18-2.075.538zm14.814-1.67c.717-.441 1.57-.67 2.556-.684v2.018c-1.21-.045-2.19.27-2.938.942-.747.673-1.173 1.577-1.278 2.714v6.257h-2.086V5.293h2.086V7.85c.389-.853.942-1.5 1.66-1.94zm4.821-.617h2.086v11.864h-2.086V5.293zM62.45.942c.246.254.37.576.37.964 0 .39-.124.71-.37.965a1.243 1.243 0 0 1-.931.381c-.374 0-.684-.127-.93-.381-.247-.254-.37-.576-.37-.965 0-.388.123-.71.37-.964.246-.254.556-.381.93-.381s.684.127.93.38zm11.426 16.215v-1.66c-.882 1.166-2.265 1.75-4.149 1.75-.822 0-1.543-.157-2.164-.471a3.466 3.466 0 0 1-1.435-1.301 3.512 3.512 0 0 1-.505-1.862c0-1.061.393-1.902 1.178-2.523.785-.62 1.88-.938 3.285-.953h3.768v-.56c0-.838-.258-1.484-.774-1.94-.516-.457-1.267-.685-2.254-.685-1.196 0-2.414.427-3.655 1.279l-.875-1.436c.852-.553 1.641-.953 2.366-1.2.725-.246 1.589-.37 2.59-.37 1.48 0 2.624.363 3.432 1.088.807.725 1.218 1.738 1.233 3.04l.023 7.804h-2.064zm-1.244-2.344c.68-.47 1.087-1.095 1.222-1.872v-1.19h-3.476c-.942 0-1.641.143-2.097.427-.456.284-.684.733-.684 1.346 0 .613.232 1.099.695 1.457.464.36 1.084.539 1.862.539.971 0 1.797-.236 2.478-.707zM79.774.516h2.086v16.64h-2.086V.517zm11.135 6.683a5.823 5.823 0 0 0-1.693-.269c-.628 0-1.133.116-1.514.348-.381.231-.572.586-.572 1.065 0 .478.213.841.64 1.088.425.246 1.072.497 1.94.751.821.24 1.494.478 2.018.718.523.239.968.59 1.334 1.054.366.463.55 1.076.55 1.839 0 1.121-.423 1.973-1.268 2.556-.844.584-1.895.875-3.15.875a7.874 7.874 0 0 1-2.569-.426c-.83-.284-1.528-.688-2.097-1.211l.785-1.525c.494.448 1.103.807 1.828 1.076.725.27 1.432.404 2.12.404.687 0 1.24-.127 1.66-.381.418-.254.627-.643.627-1.166 0-.539-.22-.942-.661-1.211-.442-.27-1.11-.539-2.008-.808-.792-.224-1.439-.452-1.94-.684a3.444 3.444 0 0 1-1.278-1.02c-.351-.449-.527-1.032-.527-1.75 0-1.106.404-1.936 1.211-2.49.807-.552 1.817-.829 3.028-.829.717 0 1.424.101 2.12.303.694.202 1.296.475 1.805.818l-.763 1.593a7.108 7.108 0 0 0-1.626-.718zm25.242 9.958h-3.61l-4.935-6.728-2.467 2.713v4.015h-3.005v-15.7h3.005v7.828l7.087-7.827h3.544l-6.033 6.638 6.414 9.06zm2.153-11.999h2.915v11.999h-2.915V5.158zm2.624-4.665c.314.33.47.748.47 1.256 0 .494-.156.905-.47 1.234-.314.329-.71.493-1.189.493-.478 0-.874-.164-1.188-.493-.314-.33-.471-.74-.471-1.234 0-.508.157-.927.47-1.256.315-.329.71-.493 1.19-.493.478 0 .874.164 1.188.493zm10.922 15.924c-.957.583-1.959.874-3.005.874-1.032 0-1.877-.302-2.535-.908-.657-.605-.986-1.499-.986-2.68v-5.92h-1.682l-.023-2.131h1.705V2.355h2.893v3.297h3.431v2.13h-3.431v5.405c0 .553.104.946.314 1.178.21.231.523.347.942.347.448 0 1.016-.164 1.704-.493l.673 2.198z"/>
</svg>
