<svg xmlns="http://www.w3.org/2000/svg" width="28" height="28" viewBox="0 0 28 28">
    <path fill="#4CCB82" fill-rule="evenodd" d="M27.564.172c.343.25.484.583.422 1l-4 24a.985.985 0 0 1-.5.703A.959.959 0 0 1 23 26c-.114 0-.24-.027-.375-.079l-7.078-2.89-3.78 4.61a.92.92 0 0 1-.766.358.845.845 0 0 1-.344-.062.98.98 0 0 1-.477-.367.975.975 0 0 1-.18-.57v-5.454L23.502 5 6.798 19.453.627 16.922c-.386-.146-.594-.433-.625-.86-.021-.416.146-.724.5-.922l26-15a.956.956 0 0 1 .5-.14.97.97 0 0 1 .562.172z"/>
</svg>
